<?xml version="1.0" encoding="UTF-8"?>
<svg id="Layer_1" data-name="Layer 1" xmlns="http://www.w3.org/2000/svg" xmlns:xlink="http://www.w3.org/1999/xlink" viewBox="0 0 299.84 299.84">
  <defs>
    <style>
      .cls-2 {
        fill: #55bab7;
      }
    </style>
  </defs>
  <path fill="#fff" d="M20.98,129.94c1,0,1.77-.23,2.31-.69.54-.47.81-1.19.81-2.15,0-.9-.29-1.59-.85-2.08-.56-.5-1.37-.75-2.44-.75-.39,0-.71.01-.96.02-.25.02-.51.04-.77.08v5.56h1.9ZM19.12,141.44c-.27.07-.68.14-1.25.21-.56.08-1.11.13-1.67.13s-1.02-.04-1.44-.13-.77-.23-1.06-.44c-.29-.22-.51-.52-.65-.9-.14-.39-.21-.9-.21-1.52v-16.88c0-.5.13-.89.4-1.17.28-.28.66-.5,1.15-.67.8-.29,1.73-.5,2.77-.63,1.04-.14,2.09-.21,3.15-.21,3.29,0,5.8.71,7.54,2.13,1.75,1.41,2.63,3.31,2.63,5.73,0,1.17-.19,2.22-.56,3.17-.36.95-.91,1.76-1.65,2.44-.72.68-1.64,1.21-2.75,1.58-1.11.38-2.4.56-3.85.56h-2.54v6.58Z"/>
  <path fill="#fff" d="M42.41,142.17c-1.41,0-2.71-.2-3.92-.58-1.21-.4-2.27-1-3.17-1.79-.89-.79-1.59-1.78-2.1-2.98-.52-1.19-.77-2.59-.77-4.19s.26-2.94.77-4.06c.51-1.14,1.19-2.07,2.02-2.79.84-.73,1.8-1.28,2.88-1.63,1.07-.34,2.17-.52,3.29-.52,1.26,0,2.42.2,3.46.58,1.04.38,1.94.91,2.69,1.58.75.67,1.33,1.47,1.75,2.4.43.93.65,1.95.65,3.04,0,.81-.23,1.43-.69,1.85-.46.43-1.09.71-1.9.83l-8.85,1.33c.26.78.8,1.37,1.6,1.77.82.39,1.76.58,2.81.58.97,0,1.9-.13,2.77-.38s1.58-.54,2.13-.88c.39.24.71.57.98,1,.26.43.4.89.4,1.35,0,1.08-.51,1.89-1.52,2.42-.77.41-1.63.67-2.58.81-.95.15-1.84.23-2.69.23ZM41.41,128.09c-.57,0-1.06.1-1.48.29-.42.18-.76.43-1.02.73-.27.29-.47.63-.6,1-.13.36-.2.74-.23,1.13l6.13-1c-.07-.48-.33-.96-.79-1.44-.45-.47-1.11-.71-2-.71Z"/>
  <path fill="#fff" d="M70.92,132.88c0,1.49-.23,2.81-.69,3.98-.46,1.16-1.1,2.13-1.92,2.92-.82.78-1.81,1.38-2.96,1.79-1.16.4-2.43.6-3.83.6s-2.7-.22-3.85-.65c-1.14-.43-2.12-1.05-2.94-1.85-.82-.8-1.46-1.78-1.92-2.92-.46-1.15-.69-2.44-.69-3.88s.23-2.68.69-3.83c.46-1.15,1.09-2.13,1.92-2.92.82-.8,1.8-1.42,2.94-1.85,1.15-.43,2.44-.65,3.85-.65s2.68.22,3.83.67c1.15.45,2.14,1.07,2.96,1.88.82.79,1.46,1.77,1.92,2.92.46,1.14.69,2.41.69,3.79ZM58.37,132.88c0,1.46.28,2.58.83,3.35.55.78,1.34,1.17,2.35,1.17s1.76-.4,2.29-1.19c.54-.79.81-1.9.81-3.33s-.28-2.53-.83-3.31c-.54-.78-1.31-1.17-2.31-1.17s-1.78.39-2.33,1.17c-.54.78-.81,1.89-.81,3.31Z"/>
  <path fill="#fff" d="M81.88,123.63c1.43,0,2.76.19,3.98.56,1.23.38,2.3.95,3.19,1.71.89.77,1.58,1.73,2.08,2.9.5,1.16.75,2.53.75,4.13s-.22,2.87-.65,4.02c-.43,1.14-1.04,2.1-1.83,2.88-.79.78-1.74,1.36-2.85,1.75-1.11.38-2.35.56-3.71.56-1.03,0-1.98-.16-2.85-.48v5.96c-.24.07-.62.15-1.15.23-.53.08-1.07.13-1.63.13-.52,0-.99-.04-1.42-.1-.42-.07-.77-.22-1.06-.44-.28-.21-.49-.5-.65-.88-.14-.36-.21-.84-.21-1.44v-17.21c0-.64.14-1.16.42-1.56.28-.42.65-.79,1.13-1.13.75-.47,1.67-.85,2.77-1.15,1.09-.29,2.32-.44,3.69-.44ZM81.94,137.32c2.47,0,3.71-1.46,3.71-4.4,0-1.53-.31-2.66-.92-3.4-.61-.75-1.49-1.13-2.65-1.13-.45,0-.85.06-1.21.17-.36.11-.68.24-.94.38v7.88c.29.16.6.28.94.38.33.08.69.13,1.06.13Z"/>
  <path fill="#fff" d="M101.05,141.55c-.27.05-.66.13-1.17.21-.52.08-1.04.13-1.56.13s-1-.04-1.42-.13c-.42-.07-.77-.21-1.06-.42-.28-.22-.49-.51-.65-.88-.16-.38-.23-.86-.23-1.46v-20.77c.26-.05.65-.13,1.15-.21.51-.08,1.03-.13,1.56-.13s1,.04,1.42.1c.42.07.77.22,1.06.44.29.21.51.5.67.88.15.38.23.86.23,1.46v20.77Z"/>
  <path fill="#fff" d="M114.09,142.17c-1.41,0-2.71-.2-3.92-.58-1.21-.4-2.27-1-3.17-1.79-.89-.79-1.59-1.78-2.1-2.98-.52-1.19-.77-2.59-.77-4.19s.26-2.94.77-4.06c.51-1.14,1.19-2.07,2.02-2.79.84-.73,1.8-1.28,2.88-1.63,1.07-.34,2.17-.52,3.29-.52,1.26,0,2.42.2,3.46.58,1.04.38,1.94.91,2.69,1.58.75.67,1.33,1.47,1.75,2.4.43.93.65,1.95.65,3.04,0,.81-.23,1.43-.69,1.85-.46.43-1.09.71-1.9.83l-8.85,1.33c.26.78.8,1.37,1.6,1.77.82.39,1.76.58,2.81.58.97,0,1.9-.13,2.77-.38s1.58-.54,2.13-.88c.39.24.71.57.98,1,.26.43.4.89.4,1.35,0,1.08-.51,1.89-1.52,2.42-.77.41-1.63.67-2.58.81-.95.15-1.84.23-2.69.23ZM113.09,128.09c-.57,0-1.06.1-1.48.29-.42.18-.76.43-1.02.73-.27.29-.47.63-.6,1-.13.36-.2.74-.23,1.13l6.13-1c-.07-.48-.33-.96-.79-1.44-.45-.47-1.11-.71-2-.71Z"/>
  <path fill="#fff" d="M146.6,128.05c.46-.19.88-.33,1.27-.42.4-.08.8-.13,1.21-.13.57,0,1.03.08,1.4.25.36.17.64.41.83.71.21.29.34.65.42,1.06.07.41.1.84.1,1.31,0,1.93-.49,3.77-1.46,5.52l2.75,2.65c-.04.92-.35,1.66-.94,2.23-.57.57-1.24.85-2.02.85-.96,0-1.9-.45-2.81-1.35l-.67-.65c-.89.64-1.91,1.15-3.04,1.52-1.13.38-2.39.56-3.77.56s-2.66-.19-3.73-.56c-1.07-.38-1.98-.88-2.73-1.52-.74-.65-1.3-1.41-1.69-2.27-.38-.88-.56-1.82-.56-2.85,0-.89.13-1.68.4-2.38.26-.69.61-1.3,1.04-1.81.43-.53.9-.98,1.42-1.35.53-.38,1.07-.68,1.63-.92-.47-.57-.81-1.17-1.02-1.81-.21-.65-.31-1.26-.31-1.83,0-.75.15-1.44.46-2.08.32-.64.76-1.19,1.33-1.67.58-.48,1.28-.86,2.1-1.13.82-.26,1.76-.4,2.81-.4,1.5,0,2.56.27,3.19.81.63.53.94,1.22.94,2.06,0,.41-.08.8-.25,1.19-.16.38-.39.72-.69,1.02-.27-.11-.57-.2-.92-.27-.35-.08-.71-.13-1.08-.13-.63,0-1.15.1-1.56.29-.41.2-.6.54-.6,1.04,0,.36.15.73.46,1.1.32.36.71.77,1.17,1.23l4.58,4.44c.13-.53.21-1.15.27-1.85.05-.72.08-1.55.08-2.48ZM136.89,134.57c0,.83.28,1.54.83,2.1.57.56,1.4.83,2.5.83.47,0,.97-.06,1.5-.19.53-.14,1.03-.36,1.52-.67l-4.6-4.63c-.57.27-1.01.63-1.31,1.08-.29.45-.44.93-.44,1.46Z"/>
  <path fill="#fff" d="M174.55,124.26c-1.83,0-3.24.56-4.23,1.69-.97,1.11-1.46,2.7-1.46,4.75s.54,3.69,1.63,4.81c1.08,1.11,2.55,1.67,4.4,1.67.97,0,1.8-.13,2.48-.38.68-.26,1.33-.56,1.96-.9.4.33.71.74.94,1.21.23.46.35.99.35,1.6,0,.99-.55,1.82-1.65,2.5-1.08.68-2.74,1.02-4.96,1.02-1.6,0-3.1-.22-4.52-.67-1.41-.46-2.64-1.16-3.69-2.1-1.04-.94-1.87-2.14-2.48-3.58-.61-1.44-.92-3.17-.92-5.19,0-1.86.29-3.5.88-4.92.58-1.43,1.38-2.63,2.4-3.6,1.03-.98,2.22-1.73,3.58-2.23,1.36-.5,2.82-.75,4.38-.75,2.19,0,3.9.36,5.1,1.08,1.21.71,1.81,1.63,1.81,2.75,0,.63-.16,1.17-.48,1.63-.31.45-.66.8-1.06,1.06-.63-.4-1.29-.74-2-1.02-.71-.29-1.53-.44-2.46-.44Z"/>
  <path fill="#fff" d="M183.48,124.42c.25-.07.63-.14,1.15-.21.51-.07,1.04-.1,1.58-.1s1,.04,1.42.1c.42.07.76.22,1.04.44.29.21.51.5.67.88.17.36.25.84.25,1.44v7.71c0,.99.23,1.69.71,2.1.48.42,1.18.63,2.08.63.55,0,1-.05,1.33-.15.34-.09.61-.19.81-.29v-12.54c.23-.07.61-.14,1.13-.21.51-.07,1.05-.1,1.6-.1.53,0,1,.04,1.42.1.42.07.76.22,1.04.44.29.21.51.5.67.88.17.36.25.84.25,1.44v10.9c0,1.2-.51,2.09-1.52,2.69-.83.53-1.83.93-3,1.21-1.16.28-2.41.42-3.77.42s-2.48-.15-3.56-.44-2.02-.73-2.81-1.33c-.79-.59-1.41-1.36-1.83-2.31-.43-.94-.65-2.08-.65-3.42v-10.25Z"/>
  <path fill="#fff" d="M210.54,141.55c-.27.05-.66.13-1.17.21-.52.08-1.04.13-1.56.13s-1-.04-1.42-.13c-.42-.07-.77-.21-1.06-.42-.28-.22-.49-.51-.65-.88-.16-.38-.23-.86-.23-1.46v-20.77c.26-.05.65-.13,1.15-.21.51-.08,1.03-.13,1.56-.13s1,.04,1.42.1c.42.07.77.22,1.06.44.29.21.51.5.67.88.15.38.23.86.23,1.46v20.77Z"/>
  <path fill="#fff" d="M220.47,135.61c0,.61.19,1.05.58,1.31.4.27.96.4,1.67.4.36,0,.73-.03,1.1-.08.39-.05.73-.13,1.02-.23.21.27.39.56.54.88.17.32.25.71.25,1.17,0,.91-.35,1.65-1.04,2.23-.68.57-1.88.85-3.58.85-2.11,0-3.74-.48-4.88-1.44-1.13-.96-1.69-2.51-1.69-4.67v-15.33c.26-.07.64-.15,1.13-.23.48-.08,1.01-.13,1.56-.13,1.05,0,1.88.19,2.46.56.58.36.88,1.14.88,2.33v2.29h4.69c.14.27.27.6.4,1,.14.39.21.83.21,1.31,0,.83-.19,1.44-.56,1.81s-.85.54-1.48.54h-3.25v5.42Z"/>
  <path fill="#fff" d="M228.71,124.42c.25-.07.63-.14,1.15-.21.51-.07,1.04-.1,1.58-.1s1,.04,1.42.1c.42.07.76.22,1.04.44.29.21.51.5.67.88.17.36.25.84.25,1.44v7.71c0,.99.23,1.69.71,2.1.48.42,1.18.63,2.08.63.55,0,1-.05,1.33-.15.34-.09.61-.19.81-.29v-12.54c.23-.07.61-.14,1.13-.21.51-.07,1.05-.1,1.6-.1.53,0,1,.04,1.42.1.42.07.76.22,1.04.44.29.21.51.5.67.88.17.36.25.84.25,1.44v10.9c0,1.2-.51,2.09-1.52,2.69-.83.53-1.83.93-3,1.21-1.16.28-2.41.42-3.77.42s-2.48-.15-3.56-.44-2.02-.73-2.81-1.33c-.79-.59-1.41-1.36-1.83-2.31-.43-.94-.65-2.08-.65-3.42v-10.25Z"/>
  <path fill="#fff" d="M255.67,141.55c-.24.07-.61.14-1.13.21-.52.08-1.05.13-1.6.13s-1-.04-1.42-.13c-.42-.07-.77-.21-1.06-.42-.28-.22-.5-.51-.67-.88-.16-.38-.23-.86-.23-1.46v-10.75c0-.54.1-1.01.31-1.4.21-.4.5-.76.88-1.08.39-.3.86-.58,1.42-.83.57-.25,1.17-.47,1.81-.67.64-.19,1.3-.34,2-.44.69-.11,1.39-.17,2.08-.17,1.15,0,2.06.22,2.73.67.67.45,1,1.17,1,2.17,0,.33-.05.66-.15.98-.1.32-.22.61-.35.88-.5,0-1.02.03-1.54.08-.53.04-1.04.11-1.54.21-.5.1-.97.2-1.42.31-.45.1-.82.22-1.13.38v12.21Z"/>
  <path fill="#fff" d="M273.5,142.17c-1.41,0-2.71-.2-3.92-.58-1.21-.4-2.27-1-3.17-1.79-.89-.79-1.59-1.78-2.1-2.98-.52-1.19-.77-2.59-.77-4.19s.26-2.94.77-4.06c.51-1.14,1.19-2.07,2.02-2.79.84-.73,1.8-1.28,2.88-1.63,1.07-.34,2.17-.52,3.29-.52,1.26,0,2.42.2,3.46.58,1.04.38,1.94.91,2.69,1.58.75.67,1.33,1.47,1.75,2.4.43.93.65,1.95.65,3.04,0,.81-.23,1.43-.69,1.85-.46.43-1.09.71-1.9.83l-8.85,1.33c.26.78.8,1.37,1.6,1.77.82.39,1.76.58,2.81.58.97,0,1.9-.13,2.77-.38s1.58-.54,2.13-.88c.39.24.71.57.98,1,.26.43.4.89.4,1.35,0,1.08-.51,1.89-1.52,2.42-.77.41-1.63.67-2.58.81-.95.15-1.84.23-2.69.23ZM272.5,128.09c-.57,0-1.06.1-1.48.29-.42.18-.76.43-1.02.73-.27.29-.47.63-.6,1-.13.36-.2.74-.23,1.13l6.13-1c-.07-.48-.33-.96-.79-1.44-.45-.47-1.11-.71-2-.71Z"/>
  <path fill="#fff" d="M128.77,175.43c-.27.07-.68.14-1.25.21-.56.08-1.1.13-1.65.13s-1.04-.04-1.46-.13-.77-.23-1.06-.44c-.28-.22-.49-.52-.65-.9-.14-.39-.21-.9-.21-1.52v-5.58h-6.88v8.23c-.27.07-.68.14-1.25.21-.56.08-1.11.13-1.67.13s-1.02-.04-1.44-.13-.77-.23-1.06-.44c-.29-.22-.51-.52-.65-.9-.14-.39-.21-.9-.21-1.52v-18.92c.26-.05.68-.13,1.25-.21.57-.08,1.11-.13,1.65-.13s1.04.04,1.46.13.76.24,1.04.46c.29.21.51.51.65.9.15.38.23.88.23,1.5v5.73h6.88v-8.38c.26-.05.68-.13,1.25-.21.58-.08,1.13-.13,1.65-.13.55,0,1.04.04,1.46.13s.76.24,1.04.46c.29.21.51.51.65.9.15.38.23.88.23,1.5v18.92Z"/>
  <path fill="#fff" d="M159.83,167.55c0,1.29-.22,2.47-.67,3.54-.43,1.06-1.07,1.96-1.92,2.71-.83.75-1.85,1.33-3.04,1.75-1.2.4-2.54.6-4.04.6s-2.85-.2-4.04-.6c-1.2-.42-2.22-1-3.06-1.75-.83-.75-1.47-1.65-1.92-2.71-.43-1.07-.65-2.25-.65-3.54v-13.69c.26-.05.68-.13,1.25-.21.57-.08,1.11-.13,1.65-.13s1.04.04,1.46.13.76.24,1.04.46c.29.21.51.51.65.9.15.38.23.88.23,1.5v10.94c0,1.14.31,2.04.94,2.69.64.64,1.46.96,2.46.96s1.84-.32,2.46-.96c.63-.65.94-1.55.94-2.69v-13.58c.26-.05.68-.13,1.25-.21.58-.08,1.14-.13,1.67-.13s1.02.04,1.44.13c.43.08.78.24,1.06.46.29.21.51.51.65.9.14.38.21.88.21,1.5v11.04Z"/>
  <path fill="#fff" d="M177.65,171.09c.33.1.76.17,1.29.21.53.03,1.03.04,1.5.04.96,0,1.75-.19,2.38-.58.64-.4.96-1.02.96-1.85s-.27-1.35-.79-1.69c-.52-.33-1.31-.5-2.4-.5h-2.94v4.38ZM177.65,162.34h2.63c1.03,0,1.77-.19,2.23-.56.47-.39.71-.95.71-1.69,0-.64-.27-1.15-.81-1.54-.54-.39-1.35-.58-2.42-.58-.36,0-.78.02-1.25.04-.46.03-.82.06-1.08.1v4.23ZM179.98,176.15c-.41,0-.89-.02-1.44-.04-.54-.03-1.11-.08-1.71-.15-.58-.07-1.16-.16-1.73-.27-.57-.11-1.1-.26-1.58-.44-1.31-.51-1.96-1.39-1.96-2.63v-16.73c0-.5.13-.89.4-1.17.28-.28.66-.5,1.15-.67.8-.29,1.82-.5,3.04-.63,1.22-.14,2.48-.21,3.77-.21,3.05,0,5.4.52,7.04,1.54,1.65,1.03,2.48,2.62,2.48,4.77,0,1.08-.31,2.02-.94,2.79-.61.77-1.45,1.33-2.5,1.69,1.19.33,2.19.95,2.98,1.83.8.89,1.21,2,1.21,3.33,0,2.36-.89,4.11-2.65,5.25-1.75,1.14-4.27,1.71-7.56,1.71Z"/>
  <path class="cls-2" d="M192.22,172.68c0-1.01.3-1.85.92-2.52.63-.67,1.48-1,2.56-1s1.92.33,2.54,1,.94,1.51.94,2.52-.31,1.83-.94,2.5-1.47,1-2.54,1-1.94-.33-2.56-1c-.61-.67-.92-1.5-.92-2.5Z"/>
</svg>