<svg xmlns="http://www.w3.org/2000/svg" xmlns:xlink="http://www.w3.org/1999/xlink" width="1250" zoomAndPan="magnify" viewBox="0 0 937.5 252.749989" height="337" preserveAspectRatio="xMidYMid meet" version="1.0"><defs><g/></defs><g fill="#ffffff" fill-opacity="1"><g transform="translate(15.896729, 106.041812)"><g><path d="M 34.71875 -38.640625 C 38.039062 -38.640625 40.59375 -39.410156 42.375 -40.953125 C 44.15625 -42.492188 45.046875 -44.851562 45.046875 -48.03125 C 45.046875 -51.039062 44.113281 -53.359375 42.25 -54.984375 C 40.394531 -56.609375 37.679688 -57.421875 34.109375 -57.421875 C 32.847656 -57.421875 31.800781 -57.398438 30.96875 -57.359375 C 30.132812 -57.316406 29.28125 -57.21875 28.40625 -57.0625 L 28.40625 -38.640625 Z M 28.53125 -0.46875 C 27.65625 -0.238281 26.285156 -0.00390625 24.421875 0.234375 C 22.566406 0.472656 20.726562 0.59375 18.90625 0.59375 C 17.082031 0.59375 15.472656 0.453125 14.078125 0.171875 C 12.691406 -0.0976562 11.523438 -0.585938 10.578125 -1.296875 C 9.628906 -2.015625 8.914062 -3.007812 8.4375 -4.28125 C 7.96875 -5.550781 7.734375 -7.210938 7.734375 -9.265625 L 7.734375 -65.265625 C 7.734375 -66.929688 8.1875 -68.21875 9.09375 -69.125 C 10.007812 -70.039062 11.257812 -70.773438 12.84375 -71.328125 C 15.53125 -72.273438 18.597656 -72.96875 22.046875 -73.40625 C 25.492188 -73.84375 28.960938 -74.0625 32.453125 -74.0625 C 43.390625 -74.0625 51.75 -71.722656 57.53125 -67.046875 C 63.320312 -62.367188 66.21875 -56.03125 66.21875 -48.03125 C 66.21875 -44.144531 65.601562 -40.632812 64.375 -37.5 C 63.144531 -34.375 61.320312 -31.679688 58.90625 -29.421875 C 56.488281 -27.160156 53.4375 -25.414062 49.75 -24.1875 C 46.0625 -22.957031 41.800781 -22.34375 36.96875 -22.34375 L 28.53125 -22.34375 Z M 28.53125 -0.46875 "/></g></g></g><g fill="#ffffff" fill-opacity="1"><g transform="translate(84.962922, 106.041812)"><g><path d="M 36.734375 1.90625 C 32.054688 1.90625 27.71875 1.253906 23.71875 -0.046875 C 19.71875 -1.359375 16.226562 -3.320312 13.25 -5.9375 C 10.28125 -8.550781 7.941406 -11.835938 6.234375 -15.796875 C 4.535156 -19.765625 3.6875 -24.40625 3.6875 -29.71875 C 3.6875 -34.945312 4.535156 -39.441406 6.234375 -43.203125 C 7.941406 -46.972656 10.179688 -50.066406 12.953125 -52.484375 C 15.734375 -54.898438 18.90625 -56.679688 22.46875 -57.828125 C 26.03125 -58.984375 29.675781 -59.5625 33.40625 -59.5625 C 37.601562 -59.5625 41.425781 -58.925781 44.875 -57.65625 C 48.320312 -56.382812 51.289062 -54.640625 53.78125 -52.421875 C 56.28125 -50.203125 58.222656 -47.546875 59.609375 -44.453125 C 61.003906 -41.367188 61.703125 -38.003906 61.703125 -34.359375 C 61.703125 -31.660156 60.945312 -29.597656 59.4375 -28.171875 C 57.925781 -26.742188 55.828125 -25.832031 53.140625 -25.4375 L 23.78125 -21.046875 C 24.644531 -18.429688 26.425781 -16.46875 29.125 -15.15625 C 31.820312 -13.84375 34.910156 -13.1875 38.390625 -13.1875 C 41.640625 -13.1875 44.710938 -13.601562 47.609375 -14.4375 C 50.503906 -15.269531 52.863281 -16.242188 54.6875 -17.359375 C 55.945312 -16.566406 57.015625 -15.457031 57.890625 -14.03125 C 58.765625 -12.601562 59.203125 -11.097656 59.203125 -9.515625 C 59.203125 -5.941406 57.535156 -3.285156 54.203125 -1.546875 C 51.671875 -0.203125 48.816406 0.707031 45.640625 1.1875 C 42.472656 1.664062 39.503906 1.90625 36.734375 1.90625 Z M 33.40625 -44.8125 C 31.5 -44.8125 29.851562 -44.492188 28.46875 -43.859375 C 27.082031 -43.222656 25.953125 -42.410156 25.078125 -41.421875 C 24.210938 -40.429688 23.5625 -39.320312 23.125 -38.09375 C 22.6875 -36.863281 22.425781 -35.617188 22.34375 -34.359375 L 42.671875 -37.6875 C 42.429688 -39.269531 41.554688 -40.851562 40.046875 -42.4375 C 38.546875 -44.019531 36.332031 -44.8125 33.40625 -44.8125 Z M 33.40625 -44.8125 "/></g></g></g><g fill="#ffffff" fill-opacity="1"><g transform="translate(150.22512, 106.041812)"><g><path d="M 65.96875 -28.890625 C 65.96875 -23.972656 65.210938 -19.59375 63.703125 -15.75 C 62.203125 -11.90625 60.082031 -8.675781 57.34375 -6.0625 C 54.613281 -3.445312 51.347656 -1.460938 47.546875 -0.109375 C 43.742188 1.234375 39.503906 1.90625 34.828125 1.90625 C 30.148438 1.90625 25.910156 1.191406 22.109375 -0.234375 C 18.304688 -1.660156 15.035156 -3.703125 12.296875 -6.359375 C 9.566406 -9.015625 7.445312 -12.242188 5.9375 -16.046875 C 4.4375 -19.847656 3.6875 -24.128906 3.6875 -28.890625 C 3.6875 -33.566406 4.4375 -37.804688 5.9375 -41.609375 C 7.445312 -45.410156 9.566406 -48.640625 12.296875 -51.296875 C 15.035156 -53.953125 18.304688 -55.992188 22.109375 -57.421875 C 25.910156 -58.847656 30.148438 -59.5625 34.828125 -59.5625 C 39.503906 -59.5625 43.742188 -58.828125 47.546875 -57.359375 C 51.347656 -55.890625 54.613281 -53.828125 57.34375 -51.171875 C 60.082031 -48.515625 62.203125 -45.285156 63.703125 -41.484375 C 65.210938 -37.679688 65.96875 -33.484375 65.96875 -28.890625 Z M 24.375 -28.890625 C 24.375 -24.054688 25.300781 -20.347656 27.15625 -17.765625 C 29.019531 -15.191406 31.617188 -13.90625 34.953125 -13.90625 C 38.273438 -13.90625 40.828125 -15.210938 42.609375 -17.828125 C 44.398438 -20.441406 45.296875 -24.128906 45.296875 -28.890625 C 45.296875 -33.640625 44.382812 -37.300781 42.5625 -39.875 C 40.738281 -42.457031 38.160156 -43.75 34.828125 -43.75 C 31.503906 -43.75 28.929688 -42.457031 27.109375 -39.875 C 25.285156 -37.300781 24.375 -33.640625 24.375 -28.890625 Z M 24.375 -28.890625 "/></g></g></g><g fill="#ffffff" fill-opacity="1"><g transform="translate(219.885693, 106.041812)"><g><path d="M 32.6875 -59.5625 C 37.445312 -59.5625 41.863281 -58.945312 45.9375 -57.71875 C 50.019531 -56.488281 53.523438 -54.601562 56.453125 -52.0625 C 59.390625 -49.53125 61.691406 -46.34375 63.359375 -42.5 C 65.023438 -38.65625 65.859375 -34.078125 65.859375 -28.765625 C 65.859375 -23.691406 65.144531 -19.253906 63.71875 -15.453125 C 62.289062 -11.648438 60.269531 -8.457031 57.65625 -5.875 C 55.039062 -3.300781 51.890625 -1.378906 48.203125 -0.109375 C 44.515625 1.148438 40.414062 1.78125 35.90625 1.78125 C 32.488281 1.78125 29.316406 1.265625 26.390625 0.234375 L 26.390625 19.96875 C 25.597656 20.207031 24.328125 20.460938 22.578125 20.734375 C 20.835938 21.015625 19.054688 21.15625 17.234375 21.15625 C 15.492188 21.15625 13.929688 21.035156 12.546875 20.796875 C 11.160156 20.566406 9.988281 20.09375 9.03125 19.375 C 8.082031 18.664062 7.367188 17.695312 6.890625 16.46875 C 6.421875 15.238281 6.1875 13.632812 6.1875 11.65625 L 6.1875 -45.40625 C 6.1875 -47.550781 6.640625 -49.296875 7.546875 -50.640625 C 8.460938 -51.984375 9.710938 -53.210938 11.296875 -54.328125 C 13.753906 -55.910156 16.804688 -57.175781 20.453125 -58.125 C 24.097656 -59.082031 28.175781 -59.5625 32.6875 -59.5625 Z M 32.921875 -14.140625 C 41.085938 -14.140625 45.171875 -19.015625 45.171875 -28.765625 C 45.171875 -33.835938 44.160156 -37.601562 42.140625 -40.0625 C 40.117188 -42.519531 37.207031 -43.75 33.40625 -43.75 C 31.894531 -43.75 30.546875 -43.566406 29.359375 -43.203125 C 28.171875 -42.847656 27.140625 -42.4375 26.265625 -41.96875 L 26.265625 -15.8125 C 27.222656 -15.332031 28.253906 -14.929688 29.359375 -14.609375 C 30.472656 -14.296875 31.660156 -14.140625 32.921875 -14.140625 Z M 32.921875 -14.140625 "/></g></g></g><g fill="#ffffff" fill-opacity="1"><g transform="translate(289.427376, 106.041812)"><g><path d="M 26.75 -0.125 C 25.875 0.0390625 24.582031 0.257812 22.875 0.53125 C 21.175781 0.8125 19.457031 0.953125 17.71875 0.953125 C 15.96875 0.953125 14.398438 0.832031 13.015625 0.59375 C 11.628906 0.351562 10.457031 -0.117188 9.5 -0.828125 C 8.550781 -1.546875 7.816406 -2.519531 7.296875 -3.75 C 6.785156 -4.976562 6.53125 -6.582031 6.53125 -8.5625 L 6.53125 -77.5 C 7.40625 -77.664062 8.691406 -77.882812 10.390625 -78.15625 C 12.097656 -78.4375 13.828125 -78.578125 15.578125 -78.578125 C 17.316406 -78.578125 18.878906 -78.457031 20.265625 -78.21875 C 21.648438 -77.976562 22.816406 -77.5 23.765625 -76.78125 C 24.722656 -76.070312 25.457031 -75.101562 25.96875 -73.875 C 26.488281 -72.644531 26.75 -71.039062 26.75 -69.0625 Z M 26.75 -0.125 "/></g></g></g><g fill="#ffffff" fill-opacity="1"><g transform="translate(322.712275, 106.041812)"><g><path d="M 36.734375 1.90625 C 32.054688 1.90625 27.71875 1.253906 23.71875 -0.046875 C 19.71875 -1.359375 16.226562 -3.320312 13.25 -5.9375 C 10.28125 -8.550781 7.941406 -11.835938 6.234375 -15.796875 C 4.535156 -19.765625 3.6875 -24.40625 3.6875 -29.71875 C 3.6875 -34.945312 4.535156 -39.441406 6.234375 -43.203125 C 7.941406 -46.972656 10.179688 -50.066406 12.953125 -52.484375 C 15.734375 -54.898438 18.90625 -56.679688 22.46875 -57.828125 C 26.03125 -58.984375 29.675781 -59.5625 33.40625 -59.5625 C 37.601562 -59.5625 41.425781 -58.925781 44.875 -57.65625 C 48.320312 -56.382812 51.289062 -54.640625 53.78125 -52.421875 C 56.28125 -50.203125 58.222656 -47.546875 59.609375 -44.453125 C 61.003906 -41.367188 61.703125 -38.003906 61.703125 -34.359375 C 61.703125 -31.660156 60.945312 -29.597656 59.4375 -28.171875 C 57.925781 -26.742188 55.828125 -25.832031 53.140625 -25.4375 L 23.78125 -21.046875 C 24.644531 -18.429688 26.425781 -16.46875 29.125 -15.15625 C 31.820312 -13.84375 34.910156 -13.1875 38.390625 -13.1875 C 41.640625 -13.1875 44.710938 -13.601562 47.609375 -14.4375 C 50.503906 -15.269531 52.863281 -16.242188 54.6875 -17.359375 C 55.945312 -16.566406 57.015625 -15.457031 57.890625 -14.03125 C 58.765625 -12.601562 59.203125 -11.097656 59.203125 -9.515625 C 59.203125 -5.941406 57.535156 -3.285156 54.203125 -1.546875 C 51.671875 -0.203125 48.816406 0.707031 45.640625 1.1875 C 42.472656 1.664062 39.503906 1.90625 36.734375 1.90625 Z M 33.40625 -44.8125 C 31.5 -44.8125 29.851562 -44.492188 28.46875 -43.859375 C 27.082031 -43.222656 25.953125 -42.410156 25.078125 -41.421875 C 24.210938 -40.429688 23.5625 -39.320312 23.125 -38.09375 C 22.6875 -36.863281 22.425781 -35.617188 22.34375 -34.359375 L 42.671875 -37.6875 C 42.429688 -39.269531 41.554688 -40.851562 40.046875 -42.4375 C 38.546875 -44.019531 36.332031 -44.8125 33.40625 -44.8125 Z M 33.40625 -44.8125 "/></g></g></g><g fill="#ffffff" fill-opacity="1"><g transform="translate(387.974485, 106.041812)"><g/></g></g><g fill="#ffffff" fill-opacity="1"><g transform="translate(411.749413, 106.041812)"><g><path d="M 55.515625 -44.9375 C 57.015625 -45.570312 58.421875 -46.023438 59.734375 -46.296875 C 61.046875 -46.578125 62.375 -46.71875 63.71875 -46.71875 C 65.613281 -46.71875 67.15625 -46.4375 68.34375 -45.875 C 69.539062 -45.320312 70.472656 -44.550781 71.140625 -43.5625 C 71.816406 -42.570312 72.273438 -41.40625 72.515625 -40.0625 C 72.753906 -38.71875 72.875 -37.25 72.875 -35.65625 C 72.875 -29.238281 71.25 -23.140625 68 -17.359375 L 77.15625 -8.5625 C 76.988281 -5.550781 75.953125 -3.09375 74.046875 -1.1875 C 72.148438 0.71875 69.894531 1.671875 67.28125 1.671875 C 64.113281 1.671875 61.023438 0.160156 58.015625 -2.859375 L 55.75 -5 C 52.820312 -2.851562 49.472656 -1.164062 45.703125 0.0625 C 41.941406 1.289062 37.765625 1.90625 33.171875 1.90625 C 28.492188 1.90625 24.367188 1.289062 20.796875 0.0625 C 17.234375 -1.164062 14.222656 -2.847656 11.765625 -4.984375 C 9.304688 -7.128906 7.441406 -9.644531 6.171875 -12.53125 C 4.910156 -15.425781 4.28125 -18.578125 4.28125 -21.984375 C 4.28125 -24.921875 4.710938 -27.535156 5.578125 -29.828125 C 6.453125 -32.128906 7.601562 -34.148438 9.03125 -35.890625 C 10.457031 -37.640625 12.039062 -39.128906 13.78125 -40.359375 C 15.53125 -41.585938 17.316406 -42.597656 19.140625 -43.390625 C 17.554688 -45.296875 16.425781 -47.316406 15.75 -49.453125 C 15.070312 -51.585938 14.734375 -53.609375 14.734375 -55.515625 C 14.734375 -57.972656 15.25 -60.269531 16.28125 -62.40625 C 17.3125 -64.550781 18.773438 -66.414062 20.671875 -68 C 22.578125 -69.582031 24.894531 -70.804688 27.625 -71.671875 C 30.363281 -72.546875 33.476562 -72.984375 36.96875 -72.984375 C 41.957031 -72.984375 45.484375 -72.09375 47.546875 -70.3125 C 49.609375 -68.53125 50.640625 -66.253906 50.640625 -63.484375 C 50.640625 -62.128906 50.378906 -60.816406 49.859375 -59.546875 C 49.347656 -58.285156 48.578125 -57.140625 47.546875 -56.109375 C 46.679688 -56.503906 45.671875 -56.820312 44.515625 -57.0625 C 43.367188 -57.300781 42.160156 -57.421875 40.890625 -57.421875 C 38.828125 -57.421875 37.125 -57.101562 35.78125 -56.46875 C 34.4375 -55.832031 33.765625 -54.679688 33.765625 -53.015625 C 33.765625 -51.828125 34.273438 -50.617188 35.296875 -49.390625 C 36.328125 -48.160156 37.597656 -46.796875 39.109375 -45.296875 L 54.328125 -30.546875 C 54.722656 -32.296875 55.019531 -34.359375 55.21875 -36.734375 C 55.414062 -39.109375 55.515625 -41.84375 55.515625 -44.9375 Z M 23.296875 -23.296875 C 23.296875 -20.523438 24.226562 -18.207031 26.09375 -16.34375 C 27.957031 -14.476562 30.710938 -13.546875 34.359375 -13.546875 C 35.941406 -13.546875 37.601562 -13.765625 39.34375 -14.203125 C 41.09375 -14.640625 42.757812 -15.375 44.34375 -16.40625 L 29.125 -31.734375 C 27.21875 -30.867188 25.769531 -29.679688 24.78125 -28.171875 C 23.789062 -26.671875 23.296875 -25.046875 23.296875 -23.296875 Z M 23.296875 -23.296875 "/></g></g></g><g fill="#ffffff" fill-opacity="1"><g transform="translate(491.752092, 106.041812)"><g/></g></g><g fill="#ffffff" fill-opacity="1"><g transform="translate(515.52702, 106.041812)"><g><path d="M 44.453125 -57.53125 C 38.359375 -57.53125 33.6875 -55.664062 30.4375 -51.9375 C 27.1875 -48.21875 25.5625 -42.953125 25.5625 -36.140625 C 25.5625 -29.242188 27.363281 -23.929688 30.96875 -20.203125 C 34.570312 -16.484375 39.425781 -14.625 45.53125 -14.625 C 48.78125 -14.625 51.53125 -15.054688 53.78125 -15.921875 C 56.039062 -16.796875 58.203125 -17.789062 60.265625 -18.90625 C 61.617188 -17.789062 62.671875 -16.457031 63.421875 -14.90625 C 64.171875 -13.363281 64.546875 -11.566406 64.546875 -9.515625 C 64.546875 -6.265625 62.742188 -3.507812 59.140625 -1.25 C 55.535156 1.007812 50.046875 2.140625 42.671875 2.140625 C 37.367188 2.140625 32.378906 1.390625 27.703125 -0.109375 C 23.023438 -1.617188 18.941406 -3.9375 15.453125 -7.0625 C 11.960938 -10.195312 9.207031 -14.160156 7.1875 -18.953125 C 5.164062 -23.753906 4.15625 -29.484375 4.15625 -36.140625 C 4.15625 -42.316406 5.125 -47.765625 7.0625 -52.484375 C 9.007812 -57.203125 11.664062 -61.179688 15.03125 -64.421875 C 18.40625 -67.671875 22.347656 -70.128906 26.859375 -71.796875 C 31.378906 -73.460938 36.21875 -74.296875 41.375 -74.296875 C 48.664062 -74.296875 54.3125 -73.109375 58.3125 -70.734375 C 62.3125 -68.359375 64.3125 -65.304688 64.3125 -61.578125 C 64.3125 -59.515625 63.796875 -57.726562 62.765625 -56.21875 C 61.734375 -54.71875 60.546875 -53.53125 59.203125 -52.65625 C 57.140625 -54.007812 54.9375 -55.160156 52.59375 -56.109375 C 50.257812 -57.054688 47.546875 -57.53125 44.453125 -57.53125 Z M 44.453125 -57.53125 "/></g></g></g><g fill="#ffffff" fill-opacity="1"><g transform="translate(583.404455, 106.041812)"><g><path d="M 6.1875 -56.9375 C 6.976562 -57.175781 8.222656 -57.414062 9.921875 -57.65625 C 11.628906 -57.894531 13.394531 -58.015625 15.21875 -58.015625 C 16.957031 -58.015625 18.519531 -57.894531 19.90625 -57.65625 C 21.289062 -57.414062 22.457031 -56.9375 23.40625 -56.21875 C 24.363281 -55.507812 25.097656 -54.539062 25.609375 -53.3125 C 26.128906 -52.082031 26.390625 -50.476562 26.390625 -48.5 L 26.390625 -22.9375 C 26.390625 -19.6875 27.179688 -17.367188 28.765625 -15.984375 C 30.347656 -14.597656 32.644531 -13.90625 35.65625 -13.90625 C 37.476562 -13.90625 38.960938 -14.0625 40.109375 -14.375 C 41.265625 -14.695312 42.160156 -15.015625 42.796875 -15.328125 L 42.796875 -56.9375 C 43.585938 -57.175781 44.832031 -57.414062 46.53125 -57.65625 C 48.238281 -57.894531 50.003906 -58.015625 51.828125 -58.015625 C 53.566406 -58.015625 55.128906 -57.894531 56.515625 -57.65625 C 57.910156 -57.414062 59.082031 -56.9375 60.03125 -56.21875 C 60.976562 -55.507812 61.707031 -54.539062 62.21875 -53.3125 C 62.738281 -52.082031 63 -50.476562 63 -48.5 L 63 -12.359375 C 63 -8.398438 61.335938 -5.429688 58.015625 -3.453125 C 55.234375 -1.703125 51.921875 -0.375 48.078125 0.53125 C 44.234375 1.445312 40.054688 1.90625 35.546875 1.90625 C 31.265625 1.90625 27.320312 1.425781 23.71875 0.46875 C 20.113281 -0.476562 17.003906 -1.941406 14.390625 -3.921875 C 11.773438 -5.898438 9.753906 -8.453125 8.328125 -11.578125 C 6.898438 -14.710938 6.1875 -18.5 6.1875 -22.9375 Z M 6.1875 -56.9375 "/></g></g></g><g fill="#ffffff" fill-opacity="1"><g transform="translate(652.589481, 106.041812)"><g><path d="M 26.75 -0.125 C 25.875 0.0390625 24.582031 0.257812 22.875 0.53125 C 21.175781 0.8125 19.457031 0.953125 17.71875 0.953125 C 15.96875 0.953125 14.398438 0.832031 13.015625 0.59375 C 11.628906 0.351562 10.457031 -0.117188 9.5 -0.828125 C 8.550781 -1.546875 7.816406 -2.519531 7.296875 -3.75 C 6.785156 -4.976562 6.53125 -6.582031 6.53125 -8.5625 L 6.53125 -77.5 C 7.40625 -77.664062 8.691406 -77.882812 10.390625 -78.15625 C 12.097656 -78.4375 13.828125 -78.578125 15.578125 -78.578125 C 17.316406 -78.578125 18.878906 -78.457031 20.265625 -78.21875 C 21.648438 -77.976562 22.816406 -77.5 23.765625 -76.78125 C 24.722656 -76.070312 25.457031 -75.101562 25.96875 -73.875 C 26.488281 -72.644531 26.75 -71.039062 26.75 -69.0625 Z M 26.75 -0.125 "/></g></g></g><g fill="#ffffff" fill-opacity="1"><g transform="translate(685.874427, 106.041812)"><g><path d="M 26.390625 -19.859375 C 26.390625 -17.796875 27.039062 -16.328125 28.34375 -15.453125 C 29.65625 -14.578125 31.5 -14.140625 33.875 -14.140625 C 35.0625 -14.140625 36.289062 -14.238281 37.5625 -14.4375 C 38.832031 -14.632812 39.941406 -14.894531 40.890625 -15.21875 C 41.609375 -14.34375 42.222656 -13.367188 42.734375 -12.296875 C 43.253906 -11.234375 43.515625 -9.945312 43.515625 -8.4375 C 43.515625 -5.425781 42.382812 -2.96875 40.125 -1.0625 C 37.863281 0.832031 33.878906 1.78125 28.171875 1.78125 C 21.203125 1.78125 15.832031 0.195312 12.0625 -2.96875 C 8.300781 -6.144531 6.421875 -11.296875 6.421875 -18.421875 L 6.421875 -69.296875 C 7.296875 -69.535156 8.539062 -69.796875 10.15625 -70.078125 C 11.78125 -70.359375 13.503906 -70.5 15.328125 -70.5 C 18.816406 -70.5 21.53125 -69.882812 23.46875 -68.65625 C 25.414062 -67.425781 26.390625 -64.828125 26.390625 -60.859375 L 26.390625 -53.25 L 41.96875 -53.25 C 42.4375 -52.382812 42.890625 -51.296875 43.328125 -49.984375 C 43.765625 -48.679688 43.984375 -47.234375 43.984375 -45.640625 C 43.984375 -42.867188 43.367188 -40.867188 42.140625 -39.640625 C 40.910156 -38.410156 39.265625 -37.796875 37.203125 -37.796875 L 26.390625 -37.796875 Z M 26.390625 -19.859375 "/></g></g></g><g fill="#ffffff" fill-opacity="1"><g transform="translate(733.424283, 106.041812)"><g><path d="M 6.1875 -56.9375 C 6.976562 -57.175781 8.222656 -57.414062 9.921875 -57.65625 C 11.628906 -57.894531 13.394531 -58.015625 15.21875 -58.015625 C 16.957031 -58.015625 18.519531 -57.894531 19.90625 -57.65625 C 21.289062 -57.414062 22.457031 -56.9375 23.40625 -56.21875 C 24.363281 -55.507812 25.097656 -54.539062 25.609375 -53.3125 C 26.128906 -52.082031 26.390625 -50.476562 26.390625 -48.5 L 26.390625 -22.9375 C 26.390625 -19.6875 27.179688 -17.367188 28.765625 -15.984375 C 30.347656 -14.597656 32.644531 -13.90625 35.65625 -13.90625 C 37.476562 -13.90625 38.960938 -14.0625 40.109375 -14.375 C 41.265625 -14.695312 42.160156 -15.015625 42.796875 -15.328125 L 42.796875 -56.9375 C 43.585938 -57.175781 44.832031 -57.414062 46.53125 -57.65625 C 48.238281 -57.894531 50.003906 -58.015625 51.828125 -58.015625 C 53.566406 -58.015625 55.128906 -57.894531 56.515625 -57.65625 C 57.910156 -57.414062 59.082031 -56.9375 60.03125 -56.21875 C 60.976562 -55.507812 61.707031 -54.539062 62.21875 -53.3125 C 62.738281 -52.082031 63 -50.476562 63 -48.5 L 63 -12.359375 C 63 -8.398438 61.335938 -5.429688 58.015625 -3.453125 C 55.234375 -1.703125 51.921875 -0.375 48.078125 0.53125 C 44.234375 1.445312 40.054688 1.90625 35.546875 1.90625 C 31.265625 1.90625 27.320312 1.425781 23.71875 0.46875 C 20.113281 -0.476562 17.003906 -1.941406 14.390625 -3.921875 C 11.773438 -5.898438 9.753906 -8.453125 8.328125 -11.578125 C 6.898438 -14.710938 6.1875 -18.5 6.1875 -22.9375 Z M 6.1875 -56.9375 "/></g></g></g><g fill="#ffffff" fill-opacity="1"><g transform="translate(802.609355, 106.041812)"><g><path d="M 26.390625 -0.125 C 25.597656 0.113281 24.347656 0.351562 22.640625 0.59375 C 20.941406 0.832031 19.179688 0.953125 17.359375 0.953125 C 15.609375 0.953125 14.039062 0.832031 12.65625 0.59375 C 11.269531 0.351562 10.101562 -0.117188 9.15625 -0.828125 C 8.207031 -1.546875 7.472656 -2.519531 6.953125 -3.75 C 6.441406 -4.976562 6.1875 -6.582031 6.1875 -8.5625 L 6.1875 -44.21875 C 6.1875 -46.039062 6.519531 -47.601562 7.1875 -48.90625 C 7.863281 -50.21875 8.835938 -51.390625 10.109375 -52.421875 C 11.367188 -53.453125 12.929688 -54.382812 14.796875 -55.21875 C 16.660156 -56.050781 18.660156 -56.785156 20.796875 -57.421875 C 22.941406 -58.054688 25.160156 -58.550781 27.453125 -58.90625 C 29.753906 -59.257812 32.054688 -59.4375 34.359375 -59.4375 C 38.160156 -59.4375 41.171875 -58.703125 43.390625 -57.234375 C 45.609375 -55.773438 46.71875 -53.378906 46.71875 -50.046875 C 46.71875 -48.929688 46.554688 -47.835938 46.234375 -46.765625 C 45.921875 -45.703125 45.523438 -44.734375 45.046875 -43.859375 C 43.390625 -43.859375 41.6875 -43.78125 39.9375 -43.625 C 38.195312 -43.46875 36.492188 -43.226562 34.828125 -42.90625 C 33.160156 -42.59375 31.59375 -42.257812 30.125 -41.90625 C 28.664062 -41.550781 27.421875 -41.132812 26.390625 -40.65625 Z M 26.390625 -0.125 "/></g></g></g><g fill="#ffffff" fill-opacity="1"><g transform="translate(851.466848, 106.041812)"><g><path d="M 36.734375 1.90625 C 32.054688 1.90625 27.71875 1.253906 23.71875 -0.046875 C 19.71875 -1.359375 16.226562 -3.320312 13.25 -5.9375 C 10.28125 -8.550781 7.941406 -11.835938 6.234375 -15.796875 C 4.535156 -19.765625 3.6875 -24.40625 3.6875 -29.71875 C 3.6875 -34.945312 4.535156 -39.441406 6.234375 -43.203125 C 7.941406 -46.972656 10.179688 -50.066406 12.953125 -52.484375 C 15.734375 -54.898438 18.90625 -56.679688 22.46875 -57.828125 C 26.03125 -58.984375 29.675781 -59.5625 33.40625 -59.5625 C 37.601562 -59.5625 41.425781 -58.925781 44.875 -57.65625 C 48.320312 -56.382812 51.289062 -54.640625 53.78125 -52.421875 C 56.28125 -50.203125 58.222656 -47.546875 59.609375 -44.453125 C 61.003906 -41.367188 61.703125 -38.003906 61.703125 -34.359375 C 61.703125 -31.660156 60.945312 -29.597656 59.4375 -28.171875 C 57.925781 -26.742188 55.828125 -25.832031 53.140625 -25.4375 L 23.78125 -21.046875 C 24.644531 -18.429688 26.425781 -16.46875 29.125 -15.15625 C 31.820312 -13.84375 34.910156 -13.1875 38.390625 -13.1875 C 41.640625 -13.1875 44.710938 -13.601562 47.609375 -14.4375 C 50.503906 -15.269531 52.863281 -16.242188 54.6875 -17.359375 C 55.945312 -16.566406 57.015625 -15.457031 57.890625 -14.03125 C 58.765625 -12.601562 59.203125 -11.097656 59.203125 -9.515625 C 59.203125 -5.941406 57.535156 -3.285156 54.203125 -1.546875 C 51.671875 -0.203125 48.816406 0.707031 45.640625 1.1875 C 42.472656 1.664062 39.503906 1.90625 36.734375 1.90625 Z M 33.40625 -44.8125 C 31.5 -44.8125 29.851562 -44.492188 28.46875 -43.859375 C 27.082031 -43.222656 25.953125 -42.410156 25.078125 -41.421875 C 24.210938 -40.429688 23.5625 -39.320312 23.125 -38.09375 C 22.6875 -36.863281 22.425781 -35.617188 22.34375 -34.359375 L 42.671875 -37.6875 C 42.429688 -39.269531 41.554688 -40.851562 40.046875 -42.4375 C 38.546875 -44.019531 36.332031 -44.8125 33.40625 -44.8125 Z M 33.40625 -44.8125 "/></g></g></g><g fill="#ffffff" fill-opacity="1"><g transform="translate(916.739987, 106.041812)"><g/></g></g><g fill="#ffffff" fill-opacity="1"><g transform="translate(312.193479, 207.941013)"><g/></g></g><g fill="#ffffff" fill-opacity="1"><g transform="translate(335.970736, 207.941013)"><g><path d="M 72.15625 -0.46875 C 71.28125 -0.238281 69.910156 -0.00390625 68.046875 0.234375 C 66.191406 0.472656 64.351562 0.59375 62.53125 0.59375 C 60.707031 0.59375 59.101562 0.453125 57.71875 0.171875 C 56.332031 -0.0976562 55.160156 -0.585938 54.203125 -1.296875 C 53.253906 -2.015625 52.539062 -3.007812 52.0625 -4.28125 C 51.59375 -5.550781 51.359375 -7.210938 51.359375 -9.265625 L 51.359375 -27.8125 L 28.53125 -27.8125 L 28.53125 -0.46875 C 27.65625 -0.238281 26.285156 -0.00390625 24.421875 0.234375 C 22.566406 0.472656 20.726562 0.59375 18.90625 0.59375 C 17.082031 0.59375 15.472656 0.453125 14.078125 0.171875 C 12.691406 -0.0976562 11.523438 -0.585938 10.578125 -1.296875 C 9.628906 -2.015625 8.914062 -3.007812 8.4375 -4.28125 C 7.96875 -5.550781 7.734375 -7.210938 7.734375 -9.265625 L 7.734375 -72.03125 C 8.597656 -72.195312 9.976562 -72.414062 11.875 -72.6875 C 13.78125 -72.96875 15.609375 -73.109375 17.359375 -73.109375 C 19.179688 -73.109375 20.785156 -72.96875 22.171875 -72.6875 C 23.554688 -72.414062 24.722656 -71.921875 25.671875 -71.203125 C 26.628906 -70.492188 27.34375 -69.503906 27.8125 -68.234375 C 28.289062 -66.960938 28.53125 -65.296875 28.53125 -63.234375 L 28.53125 -44.21875 L 51.359375 -44.21875 L 51.359375 -72.03125 C 52.222656 -72.195312 53.609375 -72.414062 55.515625 -72.6875 C 57.421875 -72.96875 59.242188 -73.109375 60.984375 -73.109375 C 62.804688 -73.109375 64.410156 -72.96875 65.796875 -72.6875 C 67.179688 -72.414062 68.347656 -71.921875 69.296875 -71.203125 C 70.253906 -70.492188 70.96875 -69.503906 71.4375 -68.234375 C 71.914062 -66.960938 72.15625 -65.296875 72.15625 -63.234375 Z M 72.15625 -0.46875 "/></g></g></g><g fill="#ffffff" fill-opacity="1"><g transform="translate(415.854525, 207.941013)"><g/></g></g><g fill="#ffffff" fill-opacity="1"><g transform="translate(439.629464, 207.941013)"><g><path d="M 71.5625 -26.625 C 71.5625 -22.34375 70.828125 -18.4375 69.359375 -14.90625 C 67.898438 -11.382812 65.78125 -8.375 63 -5.875 C 60.226562 -3.382812 56.859375 -1.460938 52.890625 -0.109375 C 48.929688 1.234375 44.457031 1.90625 39.46875 1.90625 C 34.476562 1.90625 30 1.234375 26.03125 -0.109375 C 22.070312 -1.460938 18.703125 -3.382812 15.921875 -5.875 C 13.148438 -8.375 11.03125 -11.382812 9.5625 -14.90625 C 8.101562 -18.4375 7.375 -22.34375 7.375 -26.625 L 7.375 -72.03125 C 8.238281 -72.195312 9.625 -72.414062 11.53125 -72.6875 C 13.4375 -72.96875 15.257812 -73.109375 17 -73.109375 C 18.820312 -73.109375 20.425781 -72.96875 21.8125 -72.6875 C 23.195312 -72.414062 24.363281 -71.921875 25.3125 -71.203125 C 26.269531 -70.492188 26.984375 -69.503906 27.453125 -68.234375 C 27.929688 -66.960938 28.171875 -65.296875 28.171875 -63.234375 L 28.171875 -26.984375 C 28.171875 -23.179688 29.21875 -20.207031 31.3125 -18.0625 C 33.414062 -15.925781 36.132812 -14.859375 39.46875 -14.859375 C 42.875 -14.859375 45.609375 -15.925781 47.671875 -18.0625 C 49.734375 -20.207031 50.765625 -23.179688 50.765625 -26.984375 L 50.765625 -72.03125 C 51.628906 -72.195312 53.007812 -72.414062 54.90625 -72.6875 C 56.8125 -72.96875 58.640625 -73.109375 60.390625 -73.109375 C 62.210938 -73.109375 63.816406 -72.96875 65.203125 -72.6875 C 66.585938 -72.414062 67.753906 -71.921875 68.703125 -71.203125 C 69.660156 -70.492188 70.375 -69.503906 70.84375 -68.234375 C 71.320312 -66.960938 71.5625 -65.296875 71.5625 -63.234375 Z M 71.5625 -26.625 "/></g></g></g><g fill="#ffffff" fill-opacity="1"><g transform="translate(518.562252, 207.941013)"><g/></g></g><g fill="#ffffff" fill-opacity="1"><g transform="translate(542.337191, 207.941013)"><g><path d="M 27.9375 -14.859375 C 29.039062 -14.546875 30.460938 -14.328125 32.203125 -14.203125 C 33.953125 -14.085938 35.617188 -14.03125 37.203125 -14.03125 C 40.378906 -14.03125 43.015625 -14.679688 45.109375 -15.984375 C 47.210938 -17.296875 48.265625 -19.335938 48.265625 -22.109375 C 48.265625 -24.722656 47.390625 -26.582031 45.640625 -27.6875 C 43.898438 -28.800781 41.25 -29.359375 37.6875 -29.359375 L 27.9375 -29.359375 Z M 27.9375 -43.859375 L 36.609375 -43.859375 C 40.015625 -43.859375 42.488281 -44.492188 44.03125 -45.765625 C 45.582031 -47.035156 46.359375 -48.898438 46.359375 -51.359375 C 46.359375 -53.492188 45.46875 -55.195312 43.6875 -56.46875 C 41.90625 -57.738281 39.226562 -58.375 35.65625 -58.375 C 34.46875 -58.375 33.101562 -58.332031 31.5625 -58.25 C 30.019531 -58.164062 28.8125 -58.046875 27.9375 -57.890625 Z M 35.65625 1.90625 C 34.3125 1.90625 32.726562 1.863281 30.90625 1.78125 C 29.082031 1.707031 27.195312 1.550781 25.25 1.3125 C 23.3125 1.070312 21.390625 0.769531 19.484375 0.40625 C 17.585938 0.0507812 15.847656 -0.4375 14.265625 -1.0625 C 9.910156 -2.726562 7.734375 -5.625 7.734375 -9.75 L 7.734375 -65.265625 C 7.734375 -66.929688 8.1875 -68.21875 9.09375 -69.125 C 10.007812 -70.039062 11.257812 -70.773438 12.84375 -71.328125 C 15.53125 -72.273438 18.894531 -72.96875 22.9375 -73.40625 C 26.976562 -73.84375 31.140625 -74.0625 35.421875 -74.0625 C 45.566406 -74.0625 53.375 -72.351562 58.84375 -68.9375 C 64.3125 -65.53125 67.046875 -60.265625 67.046875 -53.140625 C 67.046875 -49.566406 66.015625 -46.492188 63.953125 -43.921875 C 61.890625 -41.347656 59.117188 -39.46875 55.640625 -38.28125 C 59.597656 -37.164062 62.90625 -35.140625 65.5625 -32.203125 C 68.21875 -29.273438 69.546875 -25.59375 69.546875 -21.15625 C 69.546875 -13.3125 66.628906 -7.503906 60.796875 -3.734375 C 54.972656 0.0234375 46.59375 1.90625 35.65625 1.90625 Z M 35.65625 1.90625 "/></g></g></g><g fill="#55bab7" fill-opacity="1"><g transform="translate(615.924277, 207.941013)"><g><path d="M 2.609375 -9.625 C 2.609375 -12.957031 3.640625 -15.734375 5.703125 -17.953125 C 7.765625 -20.171875 10.578125 -21.28125 14.140625 -21.28125 C 17.710938 -21.28125 20.523438 -20.171875 22.578125 -17.953125 C 24.640625 -15.734375 25.671875 -12.957031 25.671875 -9.625 C 25.671875 -6.300781 24.640625 -3.53125 22.578125 -1.3125 C 20.523438 0.90625 17.710938 2.015625 14.140625 2.015625 C 10.578125 2.015625 7.765625 0.90625 5.703125 -1.3125 C 3.640625 -3.53125 2.609375 -6.300781 2.609375 -9.625 Z M 2.609375 -9.625 "/></g></g></g></svg>